#!OML:ASF F:\VICON\USERDATA\INSTALL\rory3\rory3.ASF
:FULLY-SPECIFIED
:DEGREES
412
root -0.0647619 16.8042 21.9542 8.30302 0.86863 -0.408039
lowerback -5.84159 2.64122 -0.457469
upperback -3.56973 3.54283 -0.566778
thorax -0.394341 1.77653 -0.135497
lowerneck -17.1642 0.294537 -0.181246
upperneck 42.617 1.36744 -1.30564
head 19.2727 0.378353 -0.301439
rclavicle -2.15868e-015 1.59028e-015
rhumerus -39.2732 -17.5391 -70.2273
rradius 25.5407
rwrist -9.29676
rhand -8.81019 13.9061
rfingers 7.12502
rthumb 17.1291 -15.3588
lclavicle -2.15868e-015 1.59028e-015
lhumerus -50.8372 33.3558 53.5736
lradius 24.5753
lwrist 2.07033
lhand -7.53907 24.6953
lfingers 7.12502
lthumb 18.3523 53.8496
rfemur 5.49782 8.63946 24.6369
rtibia 27.9122
rfoot -4.05815 -15.6857
rtoes -9.35963
lfemur -33.8013 -7.19521 -20.3824
ltibia 30.9308
lfoot -13.7194 14.427
ltoes -10.2458
413
root -0.0378804 16.8104 22.1167 8.18873 1.28881 -0.23375
lowerback -5.92316 2.49616 -0.589066
upperback -3.56712 3.35707 -0.682509
thorax -0.346883 1.68436 -0.186524
lowerneck -17.0029 0.224468 -0.336155
upperneck 42.6165 1.2531 -1.16634
head 19.2217 0.327863 -0.229419
rclavicle -1.50766e-014 -1.43125e-014
rhumerus -39.6854 -17.7748 -70.2509
rradius 25.1596
rwrist -8.73148
rhand -8.8284 14.3567
rfingers 7.12502
rthumb 17.1116 -14.9098
lclavicle -1.50766e-014 -1.43125e-014
lhumerus -49.5902 32.0451 55.5226
lradius 25.2685
lwrist 4.01547
lhand -8.03633 26.3599
lfingers 7.12502
lthumb 17.8739 55.5585
rfemur 4.32459 7.70041 24.2949
rtibia 30.6248
rfoot -2.56558 -15.6463
rtoes -6.79838
lfemur -33.2628 -7.51518 -20.6615
ltibia 31.1672
lfoot -14.68 13.4729
ltoes -6.03126
414
root -0.00916726 16.8172 22.2507 8.09802 1.54343 0.0620509
lowerback -5.73023 2.39777 -0.863949
upperback -3.58416 3.23721 -0.770952
thorax -0.481481 1.62813 -0.140121
lowerneck -16.8883 0.174529 -0.482456
upperneck 42.5941 1.23943 -1.18503
head 19.1741 0.29604 -0.214964
rclavicle 2.70099e-014 2.5842e-015
rhumerus -40.0686 -17.8167 -70.2745
rradius 24.9615
rwrist -8.56276
rhand -8.94829 14.7481
rfingers 7.12502
rthumb 16.9962 -14.5283
lclavicle 2.70099e-014 2.5842e-015
lhumerus -48.1466 30.7063 57.8571
lradius 26.2631
lwrist 6.20952
lhand -8.64164 28.3089
lfingers 7.12502
lthumb 17.2914 57.5597
rfemur 2.94296 6.99705 23.7827
rtibia 33.3392
rfoot -0.918737 -15.79
rtoes -4.63149
lfemur -32.7352 -7.53973 -21.179
ltibia 31.3287
lfoot -15.1813 12.7467
ltoes -4.96126
415
root 0.0165802 16.8254 22.3734 8.08706 1.70719 0.390623
lowerback -5.35048 2.33994 -1.23061
upperback -3.75501 3.16872 -0.899183
thorax -0.880881 1.60075 -0.0932851
lowerneck -16.7339 0.126213 -0.510154
upperneck 42.7006 1.18491 -1.20181
head 19.1981 0.268247 -0.230125
rclavicle -2.38107e-014 4.17448e-015
rhumerus -40.5544 -17.4574 -70.5386
rradius 24.8915
rwrist -8.87746
rhand -8.98282 15.2892
rfingers 7.12502
rthumb 16.963 -13.9901
lclavicle -2.38107e-014 4.17448e-015
lhumerus -47.2217 28.9367 60.0209
lradius 27.8671
lwrist 8.55813
lhand -8.71712 30.137
lfingers 7.12502
lthumb 17.2187 59.3941
rfemur 1.33145 6.38347 23.2142
rtibia 36.1394
rfoot 1.02048 -16.0556
rtoes -2.7436
lfemur -32.2699 -7.29056 -21.8037
ltibia 31.3168
lfoot -15.2069 12.4052
ltoes -7.32563
416
root 0.0477503 16.8343 22.5163 8.01482 1.87568 0.814371
lowerback -5.03472 2.17946 -1.71369
upperback -4.12383 2.96108 -0.995323
thorax -1.45539 1.50989 0.0441251
lowerneck -15.8694 0.14922 -0.541068
upperneck 42.8051 1.23115 -1.21051
head 19.0196 0.284036 -0.221034
rclavicle -8.56016e-015 5.96354e-016
rhumerus -41.4917 -16.7247 -70.7476
rradius 25.1679
rwrist -9.06672
rhand -8.5553 14.7452
rfingers 7.12502
rthumb 17.3745 -14.4983
lclavicle -8.56016e-015 5.96354e-016
lhumerus -50.6673 40.2527 48.8975
lradius 21.0372
lwrist -5.68207
lhand -7.4113 25.7099
lfingers 7.12502
lthumb 18.4752 54.8526
rfemur -0.128589 5.64565 22.501
rtibia 38.9614
rfoot 3.18208 -16.1467
rtoes -1.92746
lfemur -31.5891 -7.16033 -22.5372
ltibia 31.2183
lfoot -15.3698 12.0616
ltoes -8.86844
417
root 0.0818773 16.8323 22.6712 7.84365 2.02812 1.18386
lowerback -5.48791 2.07732 -2.01508
upperback -3.56087 2.8577 -1.05924
thorax -0.633592 1.45422 0.177134
lowerneck -16.5681 0.0762341 -0.990701
upperneck 42.6166 1.17582 -0.962667
head 19.0915 0.217938 -0.0289986
rclavicle -1.77974e-014 2.38542e-015
rhumerus -40.8183 -16.976 -70.9674
rradius 25.2017
rwrist -8.63173
rhand -7.89017 13.2853
rfingers 7.12502
rthumb 18.0145 -15.9004
lclavicle -1.77974e-014 2.38542e-015
lhumerus -49.9956 42.8406 48.3002
lradius 20.3397
lwrist -7.76062
lhand -7.50201 25.6372
lfingers 7.12502
lthumb 18.3879 54.7881
rfemur -1.36902 4.94589 21.8683
rtibia 41.7106
rfoot 4.94714 -16.2677
rtoes 0.40512
lfemur -30.6039 -6.97032 -23.2975
ltibia 31.1434
lfoot -15.7829 11.5389
ltoes -8.83266
418
root 0.109275 16.8245 22.8057 7.66948 2.15932 0.954839
lowerback -5.57037 2.04182 -1.76208
upperback -3.18197 2.80783 -0.990304
thorax -0.187618 1.42072 0.117809
lowerneck -17.1151 0.0835391 -1.0489
upperneck 42.4628 1.2274 -0.993814
head 19.1492 0.221078 -0.0217895
rclavicle 2.97773e-014 7.95139e-015
rhumerus -40.2631 -17.4674 -71.0597
rradius 24.9776
rwrist -7.93876
rhand -7.16301 12.4893
rfingers 7.12502
rthumb 18.714 -16.6305
lclavicle 2.97773e-014 7.95139e-015
lhumerus -48.152 43.2809 50.0277
lradius 20.519
lwrist -7.17529
lhand -7.7304 26.146
lfingers 7.12502
lthumb 18.1682 55.3175
rfemur -2.70684 4.50799 22.004
rtibia 44.2942
rfoot 5.8951 -16.7524
rtoes 2.42372
lfemur -29.7279 -6.57827 -23.4079
ltibia 31.1676
lfoot -16.0652 11.111
ltoes -9.25027
419
root 0.131768 16.8311 22.9242 7.65644 2.14335 0.665803
lowerback -5.26824 2.01741 -1.54991
upperback -3.2623 2.75739 -0.902086
thorax -0.431376 1.39542 0.0732142
lowerneck -17.0398 0.156113 -1.04891
upperneck 42.4094 1.35488 -1.02754
head 19.0948 0.266555 -0.0121063
rclavicle -9.93923e-016 -1.0138e-014
rhumerus -40.2498 -17.7008 -71.0382
rradius 24.5985
rwrist -7.24393
rhand -6.59468 12.7166
rfingers 7.12502
rthumb 19.2606 -16.3496
lclavicle -9.93923e-016 -1.0138e-014
lhumerus -46.6682 42.5712 51.9954
lradius 21.1592
lwrist -5.68443
lhand -7.41131 26.6985
lfingers 7.12502
lthumb 18.4752 55.8411
rfemur -4.37909 4.287 22.2206
rtibia 46.774
rfoot 6.26344 -17.2981
rtoes 2.65804
lfemur -29.3061 -6.29229 -23.2895
ltibia 31.3255
lfoot -16.3094 10.9405
ltoes -10.1752
420
root 0.162 16.8368 23.0488 7.54472 2.27641 0.474516
lowerback -4.96379 1.92722 -1.322
upperback -3.30976 2.62123 -0.862001
thorax -0.639046 1.32563 -0.0318195
lowerneck -16.9553 0.167038 -1.13295
upperneck 42.4453 1.34785 -0.907931
head 19.091 0.265958 0.0590231
rclavicle 6.21202e-016 -4.96962e-015
rhumerus -40.3359 -17.3812 -71.3787
rradius 24.5814
rwrist -7.19776
rhand -6.15568 12.5213
rfingers 7.12502
rthumb 19.6827 -16.5023
lclavicle 6.21202e-016 -4.96962e-015
lhumerus -45.4664 42.0129 53.5468
lradius 21.7759
lwrist -4.57987
lhand -6.70396 26.4826
lfingers 7.12502
lthumb 19.1555 55.5593
rfemur -5.71042 3.73967 22.2784
rtibia 49.0076
rfoot 6.67435 -17.6476
rtoes 5.09467
lfemur -28.817 -6.10911 -23.3001
ltibia 31.4756
lfoot -16.4187 10.8159
ltoes -10.7854
421
root 0.192384 16.8238 23.1738 7.39633 2.49314 0.384627
lowerback -4.69025 1.73935 -1.22005
upperback -3.38048 2.36143 -0.794329
thorax -0.860189 1.19586 -0.0412262
lowerneck -16.6113 0.221596 -1.12218
upperneck 42.4033 1.42964 -0.937564
head 18.9677 0.296293 0.0577777
rclavicle -1.51014e-014 1.09332e-014
rhumerus -40.4715 -16.7848 -71.75
rradius 24.6444
rwrist -7.26746
rhand -5.53709 11.9826
rfingers 7.12502
rthumb 20.2773 -16.9789
lclavicle -1.51014e-014 1.09332e-014
lhumerus -45.0826 42.3662 53.9067
lradius 22.0319
lwrist -4.69237
lhand -5.93276 25.9592
lfingers 7.12502
lthumb 19.897 54.9606
rfemur -6.86544 3.04896 22.2325
rtibia 51.0567
rfoot 5.76366 -17.5855
rtoes 4.84923
lfemur -28.2918 -5.96367 -23.4466
ltibia 31.6382
lfoot -16.6027 10.6384
ltoes -11.1374
422
root 0.217072 16.8427 23.3053 7.40855 2.544 0.523201
lowerback -4.61488 1.59911 -1.41722
upperback -3.46744 2.17883 -0.7901
thorax -0.997868 1.10885 0.0621741
lowerneck -16.2434 0.309575 -1.09889
upperneck 42.3306 1.55546 -0.957421
head 18.8192 0.348579 0.0677378
rclavicle 2.6662e-014 -1.17283e-014
rhumerus -40.588 -16.5288 -71.9218
rradius 24.611
rwrist -6.91236
rhand -4.84483 11.6572
rfingers 7.12502
rthumb 20.9425 -17.2322
lclavicle 2.6662e-014 -1.17283e-014
lhumerus -44.3481 42.3517 54.7851
lradius 22.5038
lwrist -4.59617
lhand -5.37974 26.738
lfingers 7.12502
lthumb 20.4285 55.6834
rfemur -8.17458 2.41669 21.9038
rtibia 52.8099
rfoot 5.17051 -17.3281
rtoes 4.72509
lfemur -27.8418 -5.88075 -23.7649
ltibia 31.7098
lfoot -16.8006 10.7247
ltoes -12.7042
423
root 0.248335 16.861 23.4418 7.45489 2.62615 0.697953
lowerback -4.70703 1.51273 -1.56004
upperback -3.35796 2.07203 -0.800072
thorax -0.837529 1.05634 0.132906
lowerneck -16.4688 0.319475 -1.21305
upperneck 42.3545 1.61601 -0.952107
head 18.8967 0.351858 0.103744
rclavicle -8.18123e-015 -1.72943e-014
rhumerus -40.2644 -16.3369 -72.1094
rradius 24.3866
rwrist -6.76564
rhand -4.27358 11.9867
rfingers 7.12502
rthumb 21.4912 -16.8411
lclavicle -8.18123e-015 -1.72943e-014
lhumerus -42.744 41.2912 57.061
lradius 23.3745
lwrist -3.38178
lhand -4.76086 26.3168
lfingers 7.12502
lthumb 21.0232 55.1973
rfemur -9.50753 1.67699 21.476
rtibia 54.4142
rfoot 4.70805 -16.8879
rtoes 5.18368
lfemur -27.4204 -5.73313 -24.1889
ltibia 31.7718
lfoot -16.6962 11.1528
ltoes -16.6248
